# xmcd CD database file
#
# Track frame offsets:
#	150
#	25264
#	39862
#	95886
#	109901
#	131129
#	143133
#	186296
#	217646
#	253530
#
# Disc length: 3590 seconds
#
# Revision: 0
# Processed by: cddbd v1.5.2PL0 Copyright (c) Steve Scherf et al.
# Submitted via: CDex 1.51
#
DISCID=8a0e040a
DTITLE=Jürgen Kerth - Made for U.S.A.
DYEAR=2002
DGENRE=Blues
TTITLE0=Harry
TTITLE1=April Reggae
TTITLE2=I do only love you
TTITLE3=Homesick Blues
TTITLE4=Martha
TTITLE5=My friend the Gipsy
TTITLE6=He young Mom
TTITLE7=Come in
TTITLE8=Living with Her
TTITLE9=Quick Result
EXTD=YEAR: 2002
EXTT0=
EXTT1=
EXTT2=
EXTT3=
EXTT4=
EXTT5=
EXTT6=
EXTT7=
EXTT8=
EXTT9=
PLAYORDER=
